<svg width="43" height="43" viewBox="0 0 43 43" fill="none" xmlns="http://www.w3.org/2000/svg">
<path d="M6.934 12.8166H1V23.8275C2.88809 39.4039 16.5543 42 21.3195 42C40.9197 41.5524 42.9876 24.8122 42.4481 19.8886C41.5892 12.0493 35.5251 2.25328 23.2975 1H12.7781V22.0138C12.7781 22.5653 12.8203 23.1208 12.9562 23.6552C14.6005 30.123 20.3897 30.4779 21.8589 30.5415C30.1306 30.8996 35.4352 17.6507 24.736 13.4432V21.5321C24.736 23.1459 23.4278 24.4541 21.814 24.4541C20.2002 24.4541 18.8919 23.1459 18.8919 21.5321V6.9083C33.8168 6.4607 36.1816 17.5611 36.3343 20.2467C36.8738 29.7358 30.3104 36.0917 21.3195 36.0917C12.359 36.0917 8.32618 28.9697 7.12864 24.3235C6.98308 23.7588 6.934 23.1758 6.934 22.5926V12.8166Z" fill="#FEFEFE" stroke="#808080" stroke-width="0.179818"/>
</svg>
